<svg width="14" height="7" viewBox="0 0 14 7" fill="none" xmlns="http://www.w3.org/2000/svg">
<path d="M4.95703 0.000927898C5.27562 -0.0127753 5.58203 0.125932 5.78125 0.374951L8.80469 4.15425L9.10547 3.55269L9.17676 3.43159C9.36169 3.16363 9.66854 2.99995 10 2.99995H12.5C13.0523 2.99995 13.5 3.44767 13.5 3.99995C13.5 4.55221 13.0523 4.99995 12.5 4.99995H10.6182L9.89453 6.44722C9.74204 6.75217 9.44452 6.95812 9.10547 6.99409C8.76636 7.03002 8.43179 6.89123 8.21875 6.62495L5.07227 2.69233L3.83203 4.55464C3.64656 4.83282 3.33434 4.99995 3 4.99995H1C0.447731 4.99995 2.62847e-05 4.55221 0 3.99995C0 3.44767 0.447715 2.99995 1 2.99995H2.46484L4.16797 0.445264L4.23926 0.350537C4.41826 0.140821 4.67807 0.0130345 4.95703 0.000927898Z" fill="#14B8A6"/>
</svg>
