<svg width="20" height="18" viewBox="0 0 20 18" fill="none" xmlns="http://www.w3.org/2000/svg">
<path d="M9.94922 1.54531C12.2843 -0.578864 15.9015 -0.513147 18.1572 1.74257C20.408 3.99338 20.4781 7.59938 18.3682 9.93495L18.1572 10.1576L11.3643 16.9506C10.632 17.6827 9.473 17.7279 8.6875 17.0873L8.53516 16.9506L4.44043 12.8559C4.04993 12.4653 4.04997 11.8313 4.44043 11.4408C4.83095 11.0503 5.46494 11.0503 5.85547 11.4408L9.9502 15.5355L16.7422 8.74257L16.8828 8.59609C18.2838 7.04563 18.2365 4.65194 16.7422 3.15761C15.248 1.66349 12.8552 1.61644 11.3047 3.01699L11.1572 3.15761L10.6572 3.65761C10.2667 4.04806 9.6327 4.04806 9.24219 3.65761L8.74219 3.15761C7.19971 1.61518 4.69969 1.61515 3.15723 3.15761C2.38584 3.92903 2.00001 4.93824 2 5.95058L1.99512 6.05214C1.94395 6.55645 1.5178 6.9496 1 6.9496C0.447755 6.9496 5.97493e-05 6.50183 0 5.9496L0.00683594 5.66445C0.075044 4.23955 0.653393 2.8314 1.74219 1.74257C3.99776 -0.512999 7.61408 -0.57834 9.94922 1.54531Z" fill="black"/>
</svg>
